<svg width="46" height="46" viewBox="0 0 46 46" fill="none" xmlns="http://www.w3.org/2000/svg">
<path d="M0 1.64286C0 1.20714 0.161549 0.789278 0.449107 0.481182C0.736666 0.173087 1.12668 0 1.53335 0H6.13339C6.47542 0.000101238 6.8076 0.122724 7.07711 0.348367C7.34661 0.57401 7.53796 0.889719 7.62074 1.24529L8.86275 6.57143H44.4671C44.7 6.5715 44.9298 6.62842 45.1391 6.73786C45.3485 6.8473 45.5318 7.0064 45.6751 7.20307C45.8185 7.39975 45.9181 7.62883 45.9665 7.87293C46.0149 8.11703 46.0108 8.36973 45.9544 8.61186L41.3544 28.3261C41.2716 28.6817 41.0803 28.9974 40.8108 29.2231C40.5412 29.4487 40.2091 29.5713 39.867 29.5714H12.2668C11.9247 29.5713 11.5926 29.4487 11.3231 29.2231C11.0536 28.9974 10.8622 28.6817 10.7794 28.3261L4.93738 3.28571H1.53335C1.12668 3.28571 0.736666 3.11263 0.449107 2.80453C0.161549 2.49644 0 2.07857 0 1.64286ZM9.62942 9.85714L13.4628 26.2857H38.671L42.5044 9.85714H9.62942ZM15.3335 36.1429C14.5201 36.1429 13.7401 36.489 13.165 37.1052C12.5899 37.7214 12.2668 38.5571 12.2668 39.4286C12.2668 40.3 12.5899 41.1357 13.165 41.7519C13.7401 42.3681 14.5201 42.7143 15.3335 42.7143C16.1468 42.7143 16.9268 42.3681 17.502 41.7519C18.0771 41.1357 18.4002 40.3 18.4002 39.4286C18.4002 38.5571 18.0771 37.7214 17.502 37.1052C16.9268 36.489 16.1468 36.1429 15.3335 36.1429ZM9.20008 39.4286C9.20008 37.6857 9.84628 36.0143 10.9965 34.7819C12.1467 33.5495 13.7068 32.8571 15.3335 32.8571C16.9602 32.8571 18.5202 33.5495 19.6704 34.7819C20.8207 36.0143 21.4669 37.6857 21.4669 39.4286C21.4669 41.1714 20.8207 42.8429 19.6704 44.0753C18.5202 45.3077 16.9602 46 15.3335 46C13.7068 46 12.1467 45.3077 10.9965 44.0753C9.84628 42.8429 9.20008 41.1714 9.20008 39.4286ZM36.8003 36.1429C35.987 36.1429 35.207 36.489 34.6319 37.1052C34.0567 37.7214 33.7336 38.5571 33.7336 39.4286C33.7336 40.3 34.0567 41.1357 34.6319 41.7519C35.207 42.3681 35.987 42.7143 36.8003 42.7143C37.6137 42.7143 38.3937 42.3681 38.9688 41.7519C39.5439 41.1357 39.867 40.3 39.867 39.4286C39.867 38.5571 39.5439 37.7214 38.9688 37.1052C38.3937 36.489 37.6137 36.1429 36.8003 36.1429ZM30.6669 39.4286C30.6669 37.6857 31.3131 36.0143 32.4634 34.7819C33.6136 33.5495 35.1737 32.8571 36.8003 32.8571C38.427 32.8571 39.9871 33.5495 41.1373 34.7819C42.2875 36.0143 42.9337 37.6857 42.9337 39.4286C42.9337 41.1714 42.2875 42.8429 41.1373 44.0753C39.9871 45.3077 38.427 46 36.8003 46C35.1737 46 33.6136 45.3077 32.4634 44.0753C31.3131 42.8429 30.6669 41.1714 30.6669 39.4286Z" fill="black"/>
</svg>
