<svg width="46" height="46" viewBox="0 0 46 46" fill="none" xmlns="http://www.w3.org/2000/svg">
<path d="M23 23C26.05 23 28.9751 21.7884 31.1317 19.6317C33.2884 17.4751 34.5 14.55 34.5 11.5C34.5 8.45001 33.2884 5.52494 31.1317 3.36827C28.9751 1.2116 26.05 0 23 0C19.95 0 17.0249 1.2116 14.8683 3.36827C12.7116 5.52494 11.5 8.45001 11.5 11.5C11.5 14.55 12.7116 17.4751 14.8683 19.6317C17.0249 21.7884 19.95 23 23 23ZM30.6667 11.5C30.6667 13.5333 29.8589 15.4834 28.4212 16.9212C26.9834 18.3589 25.0333 19.1667 23 19.1667C20.9667 19.1667 19.0166 18.3589 17.5788 16.9212C16.1411 15.4834 15.3333 13.5333 15.3333 11.5C15.3333 9.46667 16.1411 7.51663 17.5788 6.07885C19.0166 4.64107 20.9667 3.83333 23 3.83333C25.0333 3.83333 26.9834 4.64107 28.4212 6.07885C29.8589 7.51663 30.6667 9.46667 30.6667 11.5ZM46 42.1667C46 46 42.1667 46 42.1667 46H3.83333C3.83333 46 0 46 0 42.1667C0 38.3333 3.83333 26.8333 23 26.8333C42.1667 26.8333 46 38.3333 46 42.1667ZM42.1667 42.1513C42.1628 41.2083 41.5763 38.3717 38.9773 35.7727C36.478 33.2733 31.7745 30.6667 23 30.6667C14.2217 30.6667 9.522 33.2733 7.02267 35.7727C4.42367 38.3717 3.841 41.2083 3.83333 42.1513H42.1667Z" fill="black"/>
</svg>
